<?xml version="1.0" encoding="utf-8"?>
<!-- Generator: Adobe Illustrator 23.0.2, SVG Export Plug-In . SVG Version: 6.00 Build 0)  -->
<svg version="1.1" id="Laag_1" xmlns="http://www.w3.org/2000/svg" xmlns:xlink="http://www.w3.org/1999/xlink" x="0px" y="0px"
	 viewBox="0 0 447.29 128.46" style="enable-background:new 0 0 447.29 128.46;" xml:space="preserve">
<style type="text/css">
	.st0{fill:#FFFFFF;}
	.st1{fill:#B2B2B2;}
</style>
<path class="st0" d="M67.85,52.34c6.53-3.85,10.09-10,10.09-17.58c0-17.79-12.02-27.99-32.99-27.99H0v94.62h44.94
	c23.39,0,35.75-9.82,35.75-28.39C80.69,66.59,76.68,56.58,67.85,52.34z M19.71,61.57h25.23c6.5,0,15.9,4.02,15.9,11.3
	c0,9.26-13.25,9.72-15.9,9.72H19.71V61.57z M44.94,43.7H19.71V25.17h25.23c10.4,0,13.14,6.53,13.14,9.99
	C58.09,42.22,50.94,43.7,44.94,43.7z"/>
<polygon class="st0" points="130.12,63.21 124.71,77.63 119.71,62.84 109.54,33.97 88,33.97 114.42,99.01 101.75,128.46 
	122.22,128.46 162.91,33.97 142.3,33.97 "/>
<polygon class="st0" points="232.47,36.71 232.47,33.97 211.35,33.97 191.47,57.7 191.47,6.9 172.8,6.9 172.8,101.39 191.47,101.39 
	191.47,74.3 214.91,101.39 236.15,101.39 236.15,98.39 206.51,65.77 "/>
<path class="st0" d="M274.75,32C253.37,32,239,46.16,239,67.22c0,21.79,14.49,35.88,36.93,35.88c11.29,0,22.32-4.18,28.81-10.92
	l0.9-0.93l-13.04-11.01c-3.54,3.67-11.09,5.64-16.4,5.64c-9.43,0-16.08-4.24-17.74-11.17h50.22l0.11-1.19
	c1.26-13.46-1.53-24.37-8.08-31.55C294.77,35.45,285.79,32,274.75,32z M258.96,58.81c2.5-6.38,8.35-9.99,16.31-9.99
	c4.99,0,13.35,1.34,15.26,9.99H258.96z"/>
<path class="st0" d="M418.33,58.95c-10.86-0.69-10.86-4.52-10.86-5.79c0-4.63,7.35-5.13,10.51-5.13c6.49,0,11.15,1.67,15.13,5.42
	l1.01,0.95l10.67-12.55L443.82,41c-7.18-6.3-14.74-8.87-26.1-8.87c-14.26,0-28.65,6.66-28.65,21.55c0,12.45,9.95,20.06,28.05,21.42
	c9.69,0.55,11.64,2.52,11.64,5.52c0,1.3-0.54,2.48-1.61,3.53c-1.91,1.87-5.29,2.98-8.75,2.91c-6.56-0.12-16.96-3.69-21.39-8.63
	l-1.11-1.24l-9.44,13.69l0.74,0.77c10.13,10.55,21.31,11.97,30.91,11.97c20.15,0,29.17-11.35,29.17-22.6
	C447.29,63.11,431.81,59.81,418.33,58.95z"/>
<g>
	<path class="st1" d="M327.83,78.17l-1.11-1.24l-9.44,13.69l0.74,0.77c8.81,9.17,18.42,11.44,27.09,11.88
		c5.43-10.14,6.92-14.75,7.3-16.75c-1.03,0.2-2.1,0.3-3.19,0.28C342.66,86.69,332.26,83.11,327.83,78.17z"/>
	<path class="st0" d="M349.14,58.68c-10.86-0.69-10.86-4.52-10.86-5.79c0-4.63,7.35-5.13,10.51-5.13c6.49,0,11.15,1.67,15.13,5.42
		l1.01,0.95l10.67-12.55l-0.97-0.85c-7.18-6.3-14.74-8.87-26.1-8.87c-14.26,0-28.65,6.66-28.65,21.55
		c0,12.45,9.95,20.06,28.05,21.42c5.25,0.3,8.22,1.02,9.84,2.09c1.65,0.74,3.32,1.99,4.34,4.22c1.72,3.74,1.36,8.86-4.89,21.49
		c14.35-2.67,20.88-12.31,20.88-21.88C378.1,62.85,362.63,59.55,349.14,58.68z"/>
</g>
<ellipse transform="matrix(0.5593 -0.8289 0.8289 0.5593 147.5045 304.0451)" class="st0" cx="359.73" cy="13.28" rx="13.33" ry="10.19"/>
</svg>
