<?xml version="1.0" standalone="no"?>
<!DOCTYPE svg PUBLIC "-//W3C//DTD SVG 20010904//EN"
 "http://www.w3.org/TR/2001/REC-SVG-20010904/DTD/svg10.dtd">
<svg version="1.0" xmlns="http://www.w3.org/2000/svg"
 width="260.000000pt" height="260.000000pt" viewBox="0 0 260.000000 260.000000"
 preserveAspectRatio="xMidYMid meet">
<metadata>
Created by potrace 1.11, written by Peter Selinger 2001-2013
</metadata>
<g transform="translate(0.000000,260.000000) scale(0.100000,-0.100000)"
fill="#000000" stroke="none">
<path d="M0 1300 l0 -1300 1300 0 1300 0 0 1300 0 1300 -1300 0 -1300 0 0
-1300z m1658 943 c38 -27 72 -99 72 -150 0 -69 -36 -148 -93 -206 -146 -149
-348 -70 -323 125 19 141 150 265 269 255 27 -2 61 -13 75 -24z m-160 -569
c42 -8 106 -29 142 -45 68 -31 170 -103 170 -119 0 -5 -43 -59 -96 -120 l-95
-111 -40 32 c-73 58 -141 78 -257 79 -112 0 -159 -13 -186 -51 -23 -33 -20
-66 8 -94 30 -30 81 -44 210 -55 261 -23 406 -96 475 -240 23 -49 26 -67 26
-165 0 -101 -2 -115 -28 -168 -54 -108 -158 -190 -294 -230 -31 -9 -53 -12
-53 -6 0 5 11 31 24 57 40 80 68 174 73 242 9 137 -63 191 -287 214 -209 22
-329 68 -417 158 -67 69 -88 125 -88 238 0 88 3 101 33 162 20 41 50 82 75
103 55 47 170 103 249 120 87 19 262 18 356 -1z m-437 -937 c90 -42 186 -67
262 -67 31 0 57 -3 57 -7 0 -18 -54 -145 -93 -218 l-42 -80 -50 4 c-79 5 -190
37 -263 76 -76 40 -192 131 -192 150 0 8 37 67 82 133 l83 120 41 -38 c23 -21
75 -54 115 -73z"/>
</g>
</svg>
