<svg xmlns="http://www.w3.org/2000/svg" width="40.873" height="40.873" viewBox="0 0 40.873 40.873"><path d="M36.083,0H4.79A4.8,4.8,0,0,0,0,4.79V36.083a4.8,4.8,0,0,0,4.79,4.79H36.083a4.8,4.8,0,0,0,4.79-4.79V4.79A4.8,4.8,0,0,0,36.083,0Zm1.6,36.083a1.6,1.6,0,0,1-1.6,1.6h-9.1V24.667h4.933l.815-4.949H26.982V16.285a2.355,2.355,0,0,1,2.395-2.395H32.65V8.941H29.377A7.343,7.343,0,0,0,22.035,16.3v3.419H17.243v4.949h4.792V37.68H4.79a1.6,1.6,0,0,1-1.6-1.6V4.79a1.6,1.6,0,0,1,1.6-1.6H36.083a1.6,1.6,0,0,1,1.6,1.6Z" fill="#fff"/></svg>