<svg xmlns="http://www.w3.org/2000/svg" width="40.873" height="40.873" viewBox="0 0 40.873 40.873"><path d="M29,0H11.873A11.886,11.886,0,0,0,0,11.873V29A11.886,11.886,0,0,0,11.873,40.873H29A11.886,11.886,0,0,0,40.873,29V11.873A11.886,11.886,0,0,0,29,0Zm8.68,29A8.689,8.689,0,0,1,29,37.68H11.873A8.689,8.689,0,0,1,3.193,29V11.873a8.69,8.69,0,0,1,8.68-8.68H29a8.69,8.69,0,0,1,8.68,8.68Z" fill="#fff"/><g transform="translate(9.42 9.42)"><path d="M129.016,118a11.016,11.016,0,1,0,11.016,11.016A11.029,11.029,0,0,0,129.016,118Zm0,18.84a7.823,7.823,0,1,1,7.823-7.823A7.832,7.832,0,0,1,129.016,136.84Z" transform="translate(-118 -118)" fill="#fff"/></g><g transform="translate(30.016 7.664)"><circle cx="1.5" cy="1.5" r="1.5" transform="translate(-0.016 0.336)" fill="#fff"/></g></svg>