<svg xmlns="http://www.w3.org/2000/svg" width="41.012" height="30.118" viewBox="0 0 41.012 30.118"><g transform="translate(0 -68)"><g transform="translate(0 68)"><path d="M36.206,68H4.806A4.812,4.812,0,0,0,0,72.806V93.312a4.812,4.812,0,0,0,4.806,4.806h31.4a4.812,4.812,0,0,0,4.806-4.806V72.806A4.812,4.812,0,0,0,36.206,68Zm1.6,25.312a1.6,1.6,0,0,1-1.6,1.6H4.806a1.6,1.6,0,0,1-1.6-1.6V72.806a1.6,1.6,0,0,1,1.6-1.6h31.4a1.6,1.6,0,0,1,1.6,1.6Z" transform="translate(0 -68)" fill="#fff"/></g><g transform="translate(1.564 69.997)"><path d="M55.494,92.937,38.464,105.6,21.434,92.937l-1.912,2.571L38.464,109.6,57.406,95.508Z" transform="translate(-19.522 -92.937)" fill="#fff"/></g></g></svg>